<svg xmlns="http://www.w3.org/2000/svg" width="847" height="158" viewBox="0 0 847 158" role="img" aria-label="A terminal running claude-auto-window --status three times along one clock. First the five-hour window is open at 34 percent, with its reset time and a balance gate that says it would fire a starter on the haiku model. Two and a half hours later the same window has lapsed — open reads no, and that is the moment the daemon wakes. A minute after that a starter has fired: a fresh window is open at 1 percent, resetting five hours out.">
  <style>
    .fr{opacity:0}
    #fr1{animation:k1 11985ms step-end infinite}
    @keyframes k1{0%{opacity:1}0.459%{opacity:0}}
    #fr2{animation:k2 11985ms step-end infinite}
    @keyframes k2{0%{opacity:0}0.459%{opacity:1}0.918%{opacity:0}}
    #fr3{animation:k3 11985ms step-end infinite}
    @keyframes k3{0%{opacity:0}0.918%{opacity:1}1.377%{opacity:0}}
    #fr4{animation:k4 11985ms step-end infinite}
    @keyframes k4{0%{opacity:0}1.377%{opacity:1}1.836%{opacity:0}}
    #fr5{animation:k5 11985ms step-end infinite}
    @keyframes k5{0%{opacity:0}1.836%{opacity:1}2.295%{opacity:0}}
    #fr6{animation:k6 11985ms step-end infinite}
    @keyframes k6{0%{opacity:0}2.295%{opacity:1}2.753%{opacity:0}}
    #fr7{animation:k7 11985ms step-end infinite}
    @keyframes k7{0%{opacity:0}2.753%{opacity:1}3.212%{opacity:0}}
    #fr8{animation:k8 11985ms step-end infinite}
    @keyframes k8{0%{opacity:0}3.212%{opacity:1}3.671%{opacity:0}}
    #fr9{animation:k9 11985ms step-end infinite}
    @keyframes k9{0%{opacity:0}3.671%{opacity:1}4.130%{opacity:0}}
    #fr10{animation:k10 11985ms step-end infinite}
    @keyframes k10{0%{opacity:0}4.130%{opacity:1}4.589%{opacity:0}}
    #fr11{animation:k11 11985ms step-end infinite}
    @keyframes k11{0%{opacity:0}4.589%{opacity:1}5.048%{opacity:0}}
    #fr12{animation:k12 11985ms step-end infinite}
    @keyframes k12{0%{opacity:0}5.048%{opacity:1}5.507%{opacity:0}}
    #fr13{animation:k13 11985ms step-end infinite}
    @keyframes k13{0%{opacity:0}5.507%{opacity:1}5.966%{opacity:0}}
    #fr14{animation:k14 11985ms step-end infinite}
    @keyframes k14{0%{opacity:0}5.966%{opacity:1}6.425%{opacity:0}}
    #fr15{animation:k15 11985ms step-end infinite}
    @keyframes k15{0%{opacity:0}6.425%{opacity:1}6.884%{opacity:0}}
    #fr16{animation:k16 11985ms step-end infinite}
    @keyframes k16{0%{opacity:0}6.884%{opacity:1}7.343%{opacity:0}}
    #fr17{animation:k17 11985ms step-end infinite}
    @keyframes k17{0%{opacity:0}7.343%{opacity:1}7.801%{opacity:0}}
    #fr18{animation:k18 11985ms step-end infinite}
    @keyframes k18{0%{opacity:0}7.801%{opacity:1}8.260%{opacity:0}}
    #fr19{animation:k19 11985ms step-end infinite}
    @keyframes k19{0%{opacity:0}8.260%{opacity:1}8.719%{opacity:0}}
    #fr20{animation:k20 11985ms step-end infinite}
    @keyframes k20{0%{opacity:0}8.719%{opacity:1}9.178%{opacity:0}}
    #fr21{animation:k21 11985ms step-end infinite}
    @keyframes k21{0%{opacity:0}9.178%{opacity:1}9.637%{opacity:0}}
    #fr22{animation:k22 11985ms step-end infinite}
    @keyframes k22{0%{opacity:0}9.637%{opacity:1}10.096%{opacity:0}}
    #fr23{animation:k23 11985ms step-end infinite}
    @keyframes k23{0%{opacity:0}10.096%{opacity:1}10.555%{opacity:0}}
    #fr24{animation:k24 11985ms step-end infinite}
    @keyframes k24{0%{opacity:0}10.555%{opacity:1}11.014%{opacity:0}}
    #fr25{animation:k25 11985ms step-end infinite}
    @keyframes k25{0%{opacity:0}11.014%{opacity:1}11.473%{opacity:0}}
    #fr26{animation:k26 11985ms step-end infinite}
    @keyframes k26{0%{opacity:0}11.473%{opacity:1}11.932%{opacity:0}}
    #fr27{animation:k27 11985ms step-end infinite}
    @keyframes k27{0%{opacity:0}11.932%{opacity:1}12.390%{opacity:0}}
    #fr28{animation:k28 11985ms step-end infinite}
    @keyframes k28{0%{opacity:0}12.390%{opacity:1}18.231%{opacity:0}}
    #fr29{animation:k29 11985ms step-end infinite}
    @keyframes k29{0%{opacity:0}18.231%{opacity:1}41.594%{opacity:0}}
    #fr30{animation:k30 11985ms step-end infinite}
    @keyframes k30{0%{opacity:0}41.594%{opacity:1}64.956%{opacity:0}}
    #fr31{animation:k31 11985ms step-end infinite}
    @keyframes k31{0%{opacity:0}64.956%{opacity:1}}
    @media (prefers-reduced-motion:reduce){.fr{animation:none!important;opacity:0}#fr31{opacity:1}}
  </style>
  <rect width="847" height="158" rx="10" fill="#1e1e2e"/>
  <rect width="847" height="30" rx="10" fill="#181825"/>
  <rect y="24" width="847" height="6" fill="#181825"/>
  <circle cx="18" cy="15" r="5.5" fill="#f38ba8"/><circle cx="36" cy="15" r="5.5" fill="#f9e2af"/><circle cx="54" cy="15" r="5.5" fill="#a6e3a1"/>
  <text x="423" y="20" text-anchor="middle" font-family="'Cascadia Code','Fira Code',SFMono-Regular,Consolas,Menlo,monospace" font-size="12" fill="#9399b2">claude-auto-window --status</text>
  <g id="fr1" class="fr" opacity="0">
  <rect x="35.70" y="45" width="8" height="16" fill="#cdd6f4" opacity="0.75"/>
  <text y="57" font-family="'Cascadia Code','Fira Code',SFMono-Regular,Consolas,Menlo,monospace" font-size="13" xml:space="preserve"><tspan x="20.00" fill="#89dceb">$</tspan></text>
  </g>
  <g id="fr2" class="fr" opacity="0">
  <rect x="43.55" y="45" width="8" height="16" fill="#cdd6f4" opacity="0.75"/>
  <text y="57" font-family="'Cascadia Code','Fira Code',SFMono-Regular,Consolas,Menlo,monospace" font-size="13" xml:space="preserve"><tspan x="20.00" fill="#89dceb">$</tspan><tspan x="35.70" fill="#cdd6f4">c</tspan></text>
  </g>
  <g id="fr3" class="fr" opacity="0">
  <rect x="51.40" y="45" width="8" height="16" fill="#cdd6f4" opacity="0.75"/>
  <text y="57" font-family="'Cascadia Code','Fira Code',SFMono-Regular,Consolas,Menlo,monospace" font-size="13" xml:space="preserve"><tspan x="20.00" fill="#89dceb">$</tspan><tspan x="35.70 43.55" fill="#cdd6f4">cl</tspan></text>
  </g>
  <g id="fr4" class="fr" opacity="0">
  <rect x="59.25" y="45" width="8" height="16" fill="#cdd6f4" opacity="0.75"/>
  <text y="57" font-family="'Cascadia Code','Fira Code',SFMono-Regular,Consolas,Menlo,monospace" font-size="13" xml:space="preserve"><tspan x="20.00" fill="#89dceb">$</tspan><tspan x="35.70 43.55 51.40" fill="#cdd6f4">cla</tspan></text>
  </g>
  <g id="fr5" class="fr" opacity="0">
  <rect x="67.10" y="45" width="8" height="16" fill="#cdd6f4" opacity="0.75"/>
  <text y="57" font-family="'Cascadia Code','Fira Code',SFMono-Regular,Consolas,Menlo,monospace" font-size="13" xml:space="preserve"><tspan x="20.00" fill="#89dceb">$</tspan><tspan x="35.70 43.55 51.40 59.25" fill="#cdd6f4">clau</tspan></text>
  </g>
  <g id="fr6" class="fr" opacity="0">
  <rect x="74.95" y="45" width="8" height="16" fill="#cdd6f4" opacity="0.75"/>
  <text y="57" font-family="'Cascadia Code','Fira Code',SFMono-Regular,Consolas,Menlo,monospace" font-size="13" xml:space="preserve"><tspan x="20.00" fill="#89dceb">$</tspan><tspan x="35.70 43.55 51.40 59.25 67.10" fill="#cdd6f4">claud</tspan></text>
  </g>
  <g id="fr7" class="fr" opacity="0">
  <rect x="82.80" y="45" width="8" height="16" fill="#cdd6f4" opacity="0.75"/>
  <text y="57" font-family="'Cascadia Code','Fira Code',SFMono-Regular,Consolas,Menlo,monospace" font-size="13" xml:space="preserve"><tspan x="20.00" fill="#89dceb">$</tspan><tspan x="35.70 43.55 51.40 59.25 67.10 74.95" fill="#cdd6f4">claude</tspan></text>
  </g>
  <g id="fr8" class="fr" opacity="0">
  <rect x="90.65" y="45" width="8" height="16" fill="#cdd6f4" opacity="0.75"/>
  <text y="57" font-family="'Cascadia Code','Fira Code',SFMono-Regular,Consolas,Menlo,monospace" font-size="13" xml:space="preserve"><tspan x="20.00" fill="#89dceb">$</tspan><tspan x="35.70 43.55 51.40 59.25 67.10 74.95 82.80" fill="#cdd6f4">claude-</tspan></text>
  </g>
  <g id="fr9" class="fr" opacity="0">
  <rect x="98.50" y="45" width="8" height="16" fill="#cdd6f4" opacity="0.75"/>
  <text y="57" font-family="'Cascadia Code','Fira Code',SFMono-Regular,Consolas,Menlo,monospace" font-size="13" xml:space="preserve"><tspan x="20.00" fill="#89dceb">$</tspan><tspan x="35.70 43.55 51.40 59.25 67.10 74.95 82.80 90.65" fill="#cdd6f4">claude-a</tspan></text>
  </g>
  <g id="fr10" class="fr" opacity="0">
  <rect x="106.35" y="45" width="8" height="16" fill="#cdd6f4" opacity="0.75"/>
  <text y="57" font-family="'Cascadia Code','Fira Code',SFMono-Regular,Consolas,Menlo,monospace" font-size="13" xml:space="preserve"><tspan x="20.00" fill="#89dceb">$</tspan><tspan x="35.70 43.55 51.40 59.25 67.10 74.95 82.80 90.65 98.50" fill="#cdd6f4">claude-au</tspan></text>
  </g>
  <g id="fr11" class="fr" opacity="0">
  <rect x="114.20" y="45" width="8" height="16" fill="#cdd6f4" opacity="0.75"/>
  <text y="57" font-family="'Cascadia Code','Fira Code',SFMono-Regular,Consolas,Menlo,monospace" font-size="13" xml:space="preserve"><tspan x="20.00" fill="#89dceb">$</tspan><tspan x="35.70 43.55 51.40 59.25 67.10 74.95 82.80 90.65 98.50 106.35" fill="#cdd6f4">claude-aut</tspan></text>
  </g>
  <g id="fr12" class="fr" opacity="0">
  <rect x="122.05" y="45" width="8" height="16" fill="#cdd6f4" opacity="0.75"/>
  <text y="57" font-family="'Cascadia Code','Fira Code',SFMono-Regular,Consolas,Menlo,monospace" font-size="13" xml:space="preserve"><tspan x="20.00" fill="#89dceb">$</tspan><tspan x="35.70 43.55 51.40 59.25 67.10 74.95 82.80 90.65 98.50 106.35 114.20" fill="#cdd6f4">claude-auto</tspan></text>
  </g>
  <g id="fr13" class="fr" opacity="0">
  <rect x="129.90" y="45" width="8" height="16" fill="#cdd6f4" opacity="0.75"/>
  <text y="57" font-family="'Cascadia Code','Fira Code',SFMono-Regular,Consolas,Menlo,monospace" font-size="13" xml:space="preserve"><tspan x="20.00" fill="#89dceb">$</tspan><tspan x="35.70 43.55 51.40 59.25 67.10 74.95 82.80 90.65 98.50 106.35 114.20 122.05" fill="#cdd6f4">claude-auto-</tspan></text>
  </g>
  <g id="fr14" class="fr" opacity="0">
  <rect x="137.75" y="45" width="8" height="16" fill="#cdd6f4" opacity="0.75"/>
  <text y="57" font-family="'Cascadia Code','Fira Code',SFMono-Regular,Consolas,Menlo,monospace" font-size="13" xml:space="preserve"><tspan x="20.00" fill="#89dceb">$</tspan><tspan x="35.70 43.55 51.40 59.25 67.10 74.95 82.80 90.65 98.50 106.35 114.20 122.05 129.90" fill="#cdd6f4">claude-auto-w</tspan></text>
  </g>
  <g id="fr15" class="fr" opacity="0">
  <rect x="145.60" y="45" width="8" height="16" fill="#cdd6f4" opacity="0.75"/>
  <text y="57" font-family="'Cascadia Code','Fira Code',SFMono-Regular,Consolas,Menlo,monospace" font-size="13" xml:space="preserve"><tspan x="20.00" fill="#89dceb">$</tspan><tspan x="35.70 43.55 51.40 59.25 67.10 74.95 82.80 90.65 98.50 106.35 114.20 122.05 129.90 137.75" fill="#cdd6f4">claude-auto-wi</tspan></text>
  </g>
  <g id="fr16" class="fr" opacity="0">
  <rect x="153.45" y="45" width="8" height="16" fill="#cdd6f4" opacity="0.75"/>
  <text y="57" font-family="'Cascadia Code','Fira Code',SFMono-Regular,Consolas,Menlo,monospace" font-size="13" xml:space="preserve"><tspan x="20.00" fill="#89dceb">$</tspan><tspan x="35.70 43.55 51.40 59.25 67.10 74.95 82.80 90.65 98.50 106.35 114.20 122.05 129.90 137.75 145.60" fill="#cdd6f4">claude-auto-win</tspan></text>
  </g>
  <g id="fr17" class="fr" opacity="0">
  <rect x="161.30" y="45" width="8" height="16" fill="#cdd6f4" opacity="0.75"/>
  <text y="57" font-family="'Cascadia Code','Fira Code',SFMono-Regular,Consolas,Menlo,monospace" font-size="13" xml:space="preserve"><tspan x="20.00" fill="#89dceb">$</tspan><tspan x="35.70 43.55 51.40 59.25 67.10 74.95 82.80 90.65 98.50 106.35 114.20 122.05 129.90 137.75 145.60 153.45" fill="#cdd6f4">claude-auto-wind</tspan></text>
  </g>
  <g id="fr18" class="fr" opacity="0">
  <rect x="169.15" y="45" width="8" height="16" fill="#cdd6f4" opacity="0.75"/>
  <text y="57" font-family="'Cascadia Code','Fira Code',SFMono-Regular,Consolas,Menlo,monospace" font-size="13" xml:space="preserve"><tspan x="20.00" fill="#89dceb">$</tspan><tspan x="35.70 43.55 51.40 59.25 67.10 74.95 82.80 90.65 98.50 106.35 114.20 122.05 129.90 137.75 145.60 153.45 161.30" fill="#cdd6f4">claude-auto-windo</tspan></text>
  </g>
  <g id="fr19" class="fr" opacity="0">
  <rect x="177.00" y="45" width="8" height="16" fill="#cdd6f4" opacity="0.75"/>
  <text y="57" font-family="'Cascadia Code','Fira Code',SFMono-Regular,Consolas,Menlo,monospace" font-size="13" xml:space="preserve"><tspan x="20.00" fill="#89dceb">$</tspan><tspan x="35.70 43.55 51.40 59.25 67.10 74.95 82.80 90.65 98.50 106.35 114.20 122.05 129.90 137.75 145.60 153.45 161.30 169.15" fill="#cdd6f4">claude-auto-window</tspan></text>
  </g>
  <g id="fr20" class="fr" opacity="0">
  <rect x="184.85" y="45" width="8" height="16" fill="#cdd6f4" opacity="0.75"/>
  <text y="57" font-family="'Cascadia Code','Fira Code',SFMono-Regular,Consolas,Menlo,monospace" font-size="13" xml:space="preserve"><tspan x="20.00" fill="#89dceb">$</tspan><tspan x="35.70 43.55 51.40 59.25 67.10 74.95 82.80 90.65 98.50 106.35 114.20 122.05 129.90 137.75 145.60 153.45 161.30 169.15 177.00" fill="#cdd6f4">claude-auto-window </tspan></text>
  </g>
  <g id="fr21" class="fr" opacity="0">
  <rect x="192.70" y="45" width="8" height="16" fill="#cdd6f4" opacity="0.75"/>
  <text y="57" font-family="'Cascadia Code','Fira Code',SFMono-Regular,Consolas,Menlo,monospace" font-size="13" xml:space="preserve"><tspan x="20.00" fill="#89dceb">$</tspan><tspan x="35.70 43.55 51.40 59.25 67.10 74.95 82.80 90.65 98.50 106.35 114.20 122.05 129.90 137.75 145.60 153.45 161.30 169.15 177.00 184.85" fill="#cdd6f4">claude-auto-window -</tspan></text>
  </g>
  <g id="fr22" class="fr" opacity="0">
  <rect x="200.55" y="45" width="8" height="16" fill="#cdd6f4" opacity="0.75"/>
  <text y="57" font-family="'Cascadia Code','Fira Code',SFMono-Regular,Consolas,Menlo,monospace" font-size="13" xml:space="preserve"><tspan x="20.00" fill="#89dceb">$</tspan><tspan x="35.70 43.55 51.40 59.25 67.10 74.95 82.80 90.65 98.50 106.35 114.20 122.05 129.90 137.75 145.60 153.45 161.30 169.15 177.00 184.85 192.70" fill="#cdd6f4">claude-auto-window --</tspan></text>
  </g>
  <g id="fr23" class="fr" opacity="0">
  <rect x="208.40" y="45" width="8" height="16" fill="#cdd6f4" opacity="0.75"/>
  <text y="57" font-family="'Cascadia Code','Fira Code',SFMono-Regular,Consolas,Menlo,monospace" font-size="13" xml:space="preserve"><tspan x="20.00" fill="#89dceb">$</tspan><tspan x="35.70 43.55 51.40 59.25 67.10 74.95 82.80 90.65 98.50 106.35 114.20 122.05 129.90 137.75 145.60 153.45 161.30 169.15 177.00 184.85 192.70 200.55" fill="#cdd6f4">claude-auto-window --s</tspan></text>
  </g>
  <g id="fr24" class="fr" opacity="0">
  <rect x="216.25" y="45" width="8" height="16" fill="#cdd6f4" opacity="0.75"/>
  <text y="57" font-family="'Cascadia Code','Fira Code',SFMono-Regular,Consolas,Menlo,monospace" font-size="13" xml:space="preserve"><tspan x="20.00" fill="#89dceb">$</tspan><tspan x="35.70 43.55 51.40 59.25 67.10 74.95 82.80 90.65 98.50 106.35 114.20 122.05 129.90 137.75 145.60 153.45 161.30 169.15 177.00 184.85 192.70 200.55 208.40" fill="#cdd6f4">claude-auto-window --st</tspan></text>
  </g>
  <g id="fr25" class="fr" opacity="0">
  <rect x="224.10" y="45" width="8" height="16" fill="#cdd6f4" opacity="0.75"/>
  <text y="57" font-family="'Cascadia Code','Fira Code',SFMono-Regular,Consolas,Menlo,monospace" font-size="13" xml:space="preserve"><tspan x="20.00" fill="#89dceb">$</tspan><tspan x="35.70 43.55 51.40 59.25 67.10 74.95 82.80 90.65 98.50 106.35 114.20 122.05 129.90 137.75 145.60 153.45 161.30 169.15 177.00 184.85 192.70 200.55 208.40 216.25" fill="#cdd6f4">claude-auto-window --sta</tspan></text>
  </g>
  <g id="fr26" class="fr" opacity="0">
  <rect x="231.95" y="45" width="8" height="16" fill="#cdd6f4" opacity="0.75"/>
  <text y="57" font-family="'Cascadia Code','Fira Code',SFMono-Regular,Consolas,Menlo,monospace" font-size="13" xml:space="preserve"><tspan x="20.00" fill="#89dceb">$</tspan><tspan x="35.70 43.55 51.40 59.25 67.10 74.95 82.80 90.65 98.50 106.35 114.20 122.05 129.90 137.75 145.60 153.45 161.30 169.15 177.00 184.85 192.70 200.55 208.40 216.25 224.10" fill="#cdd6f4">claude-auto-window --stat</tspan></text>
  </g>
  <g id="fr27" class="fr" opacity="0">
  <rect x="239.80" y="45" width="8" height="16" fill="#cdd6f4" opacity="0.75"/>
  <text y="57" font-family="'Cascadia Code','Fira Code',SFMono-Regular,Consolas,Menlo,monospace" font-size="13" xml:space="preserve"><tspan x="20.00" fill="#89dceb">$</tspan><tspan x="35.70 43.55 51.40 59.25 67.10 74.95 82.80 90.65 98.50 106.35 114.20 122.05 129.90 137.75 145.60 153.45 161.30 169.15 177.00 184.85 192.70 200.55 208.40 216.25 224.10 231.95" fill="#cdd6f4">claude-auto-window --statu</tspan></text>
  </g>
  <g id="fr28" class="fr" opacity="0">
  <rect x="247.65" y="45" width="8" height="16" fill="#cdd6f4" opacity="0.75"/>
  <text y="57" font-family="'Cascadia Code','Fira Code',SFMono-Regular,Consolas,Menlo,monospace" font-size="13" xml:space="preserve"><tspan x="20.00" fill="#89dceb">$</tspan><tspan x="35.70 43.55 51.40 59.25 67.10 74.95 82.80 90.65 98.50 106.35 114.20 122.05 129.90 137.75 145.60 153.45 161.30 169.15 177.00 184.85 192.70 200.55 208.40 216.25 224.10 231.95 239.80" fill="#cdd6f4">claude-auto-window --status</tspan></text>
  </g>
  <g id="fr29" class="fr" opacity="0">
  <text y="57" font-family="'Cascadia Code','Fira Code',SFMono-Regular,Consolas,Menlo,monospace" font-size="13" xml:space="preserve"><tspan x="20.00" fill="#89dceb">$</tspan><tspan x="35.70 43.55 51.40 59.25 67.10 74.95 82.80 90.65 98.50 106.35 114.20 122.05 129.90 137.75 145.60 153.45 161.30 169.15 177.00 184.85 192.70 200.55 208.40 216.25 224.10 231.95 239.80" fill="#cdd6f4">claude-auto-window --status</tspan></text>
  <text y="97" font-family="'Cascadia Code','Fira Code',SFMono-Regular,Consolas,Menlo,monospace" font-size="13" xml:space="preserve" fill="#cdd6f4"><tspan x="20.00 27.85 35.70 43.55 51.40 59.25 67.10 74.95">profile=</tspan><tspan x="82.80 90.65 98.50 106.35 114.20 122.05 129.90 137.75 145.60 153.45 161.30 169.15 177.00 184.85 192.70 200.55 208.40 216.25" font-weight="bold">/home/demo/.claude</tspan><tspan x="224.10 231.95 239.80 247.65 255.50 263.35 271.20 279.05 286.90 294.75 302.60 310.45 318.30 326.15 334.00 341.85"> five_hour_open=</tspan><tspan x="349.70 357.55 365.40" fill="#a6e3a1">yes</tspan><tspan x="373.25 381.10 388.95 396.80 404.65 412.50 420.35 428.20 436.05 443.90 451.75 459.60 467.45 475.30 483.15 491.00 498.85 506.70 514.55 522.40 530.25 538.10"> percent=34 resets_at=</tspan><tspan x="545.95 553.80 561.65 569.50 577.35 585.20 593.05 600.90 608.75 616.60 624.45 632.30 640.15 648.00 655.85 663.70 671.55 679.40 687.25 695.10 702.95 710.80 718.65 726.50 734.35 742.20 750.05 757.90 765.75 773.60 781.45 789.30" fill="#9399b2">2026-08-14T14:56:51.000000+00:00</tspan></text>
  <text y="117" font-family="'Cascadia Code','Fira Code',SFMono-Regular,Consolas,Menlo,monospace" font-size="13" xml:space="preserve" fill="#cdd6f4"><tspan x="20.00 27.85 35.70 43.55 51.40 59.25 67.10 74.95 82.80 90.65 98.50 106.35 114.20 122.05 129.90 137.75 145.60 153.45 161.30 169.15 177.00">  weekly_all=22%  →  </tspan><tspan x="184.85 192.70 200.55 208.40 216.25 224.10 231.95 239.80 247.65 255.50" fill="#a6e3a1">would fire</tspan><tspan x="263.35 271.20 279.05 286.90 294.75 302.60 310.45 318.30 326.15 334.00 341.85 349.70 357.55 365.40 373.25 381.10 388.95 396.80 404.65 412.50 420.35 428.20 436.05 443.90 451.75 459.60 467.45 475.30 483.15 491.00 498.85 506.70 514.55 522.40 530.25 538.10 545.95 553.80"> — starter model 'haiku' still on plan</tspan></text>
  <text y="137" font-family="'Cascadia Code','Fira Code',SFMono-Regular,Consolas,Menlo,monospace" font-size="13" xml:space="preserve" fill="#cdd6f4"><tspan x="20.00 27.85 35.70 43.55 51.40 59.25 67.10 74.95 82.80 90.65 98.50 106.35 114.20 122.05 129.90 137.75 145.60 153.45 161.30 169.15 177.00 184.85 192.70 200.55 208.40 216.25 224.10 231.95 239.80 247.65 255.50 263.35 271.20 279.05 286.90 294.75 302.60 310.45 318.30 326.15 334.00 341.85 349.70 357.55 365.40 373.25 381.10 388.95 396.80 404.65 412.50 420.35 428.20 436.05 443.90 451.75 459.60 467.45 475.30 483.15 491.00 498.85 506.70 514.55 522.40" fill="#9399b2">  credits=0/25 USD used (0%) — spent only after plan is exhausted</tspan></text>
  </g>
  <g id="fr30" class="fr" opacity="0">
  <text y="57" font-family="'Cascadia Code','Fira Code',SFMono-Regular,Consolas,Menlo,monospace" font-size="13" xml:space="preserve"><tspan x="20.00" fill="#89dceb">$</tspan><tspan x="35.70 43.55 51.40 59.25 67.10 74.95 82.80 90.65 98.50 106.35 114.20 122.05 129.90 137.75 145.60 153.45 161.30 169.15 177.00 184.85 192.70 200.55 208.40 216.25 224.10 231.95 239.80" fill="#cdd6f4">claude-auto-window --status</tspan></text>
  <text y="97" font-family="'Cascadia Code','Fira Code',SFMono-Regular,Consolas,Menlo,monospace" font-size="13" xml:space="preserve" fill="#cdd6f4"><tspan x="20.00 27.85 35.70 43.55 51.40 59.25 67.10 74.95">profile=</tspan><tspan x="82.80 90.65 98.50 106.35 114.20 122.05 129.90 137.75 145.60 153.45 161.30 169.15 177.00 184.85 192.70 200.55 208.40 216.25" font-weight="bold">/home/demo/.claude</tspan><tspan x="224.10 231.95 239.80 247.65 255.50 263.35 271.20 279.05 286.90 294.75 302.60 310.45 318.30 326.15 334.00 341.85"> five_hour_open=</tspan><tspan x="349.70 357.55" fill="#f9e2af">no</tspan><tspan x="365.40 373.25 381.10 388.95 396.80 404.65 412.50 420.35 428.20 436.05 443.90 451.75 459.60 467.45 475.30 483.15 491.00 498.85 506.70 514.55 522.40"> percent=0 resets_at=</tspan><tspan x="530.25 538.10 545.95 553.80 561.65 569.50 577.35 585.20 593.05 600.90 608.75 616.60 624.45 632.30 640.15 648.00 655.85 663.70 671.55 679.40 687.25 695.10 702.95 710.80 718.65 726.50 734.35 742.20 750.05 757.90 765.75 773.60" fill="#9399b2">2026-08-14T14:56:51.000000+00:00</tspan></text>
  <text y="117" font-family="'Cascadia Code','Fira Code',SFMono-Regular,Consolas,Menlo,monospace" font-size="13" xml:space="preserve" fill="#cdd6f4"><tspan x="20.00 27.85 35.70 43.55 51.40 59.25 67.10 74.95 82.80 90.65 98.50 106.35 114.20 122.05 129.90 137.75 145.60 153.45 161.30 169.15 177.00">  weekly_all=22%  →  </tspan><tspan x="184.85 192.70 200.55 208.40 216.25 224.10 231.95 239.80 247.65 255.50" fill="#a6e3a1">would fire</tspan><tspan x="263.35 271.20 279.05 286.90 294.75 302.60 310.45 318.30 326.15 334.00 341.85 349.70 357.55 365.40 373.25 381.10 388.95 396.80 404.65 412.50 420.35 428.20 436.05 443.90 451.75 459.60 467.45 475.30 483.15 491.00 498.85 506.70 514.55 522.40 530.25 538.10 545.95 553.80"> — starter model 'haiku' still on plan</tspan></text>
  <text y="137" font-family="'Cascadia Code','Fira Code',SFMono-Regular,Consolas,Menlo,monospace" font-size="13" xml:space="preserve" fill="#cdd6f4"><tspan x="20.00 27.85 35.70 43.55 51.40 59.25 67.10 74.95 82.80 90.65 98.50 106.35 114.20 122.05 129.90 137.75 145.60 153.45 161.30 169.15 177.00 184.85 192.70 200.55 208.40 216.25 224.10 231.95 239.80 247.65 255.50 263.35 271.20 279.05 286.90 294.75 302.60 310.45 318.30 326.15 334.00 341.85 349.70 357.55 365.40 373.25 381.10 388.95 396.80 404.65 412.50 420.35 428.20 436.05 443.90 451.75 459.60 467.45 475.30 483.15 491.00 498.85 506.70 514.55 522.40" fill="#9399b2">  credits=0/25 USD used (0%) — spent only after plan is exhausted</tspan></text>
  <rect x="640" y="37" width="191" height="22" rx="11" fill="#313244" stroke="#45475a"/>
  <text x="735" y="52" text-anchor="middle" font-family="'Cascadia Code','Fira Code',SFMono-Regular,Consolas,Menlo,monospace" font-size="11" fill="#f9e2af">+2h 38m  ·  window lapsed</text>
  </g>
  <g id="fr31" class="fr">
  <text y="57" font-family="'Cascadia Code','Fira Code',SFMono-Regular,Consolas,Menlo,monospace" font-size="13" xml:space="preserve"><tspan x="20.00" fill="#89dceb">$</tspan><tspan x="35.70 43.55 51.40 59.25 67.10 74.95 82.80 90.65 98.50 106.35 114.20 122.05 129.90 137.75 145.60 153.45 161.30 169.15 177.00 184.85 192.70 200.55 208.40 216.25 224.10 231.95 239.80" fill="#cdd6f4">claude-auto-window --status</tspan></text>
  <text y="97" font-family="'Cascadia Code','Fira Code',SFMono-Regular,Consolas,Menlo,monospace" font-size="13" xml:space="preserve" fill="#cdd6f4"><tspan x="20.00 27.85 35.70 43.55 51.40 59.25 67.10 74.95">profile=</tspan><tspan x="82.80 90.65 98.50 106.35 114.20 122.05 129.90 137.75 145.60 153.45 161.30 169.15 177.00 184.85 192.70 200.55 208.40 216.25" font-weight="bold">/home/demo/.claude</tspan><tspan x="224.10 231.95 239.80 247.65 255.50 263.35 271.20 279.05 286.90 294.75 302.60 310.45 318.30 326.15 334.00 341.85"> five_hour_open=</tspan><tspan x="349.70 357.55 365.40" fill="#a6e3a1">yes</tspan><tspan x="373.25 381.10 388.95 396.80 404.65 412.50 420.35 428.20 436.05 443.90 451.75 459.60 467.45 475.30 483.15 491.00 498.85 506.70 514.55 522.40 530.25"> percent=1 resets_at=</tspan><tspan x="538.10 545.95 553.80 561.65 569.50 577.35 585.20 593.05 600.90 608.75 616.60 624.45 632.30 640.15 648.00 655.85 663.70 671.55 679.40 687.25 695.10 702.95 710.80 718.65 726.50 734.35 742.20 750.05 757.90 765.75 773.60 781.45" fill="#9399b2">2026-08-14T19:57:51.000000+00:00</tspan></text>
  <text y="117" font-family="'Cascadia Code','Fira Code',SFMono-Regular,Consolas,Menlo,monospace" font-size="13" xml:space="preserve" fill="#cdd6f4"><tspan x="20.00 27.85 35.70 43.55 51.40 59.25 67.10 74.95 82.80 90.65 98.50 106.35 114.20 122.05 129.90 137.75 145.60 153.45 161.30 169.15 177.00">  weekly_all=22%  →  </tspan><tspan x="184.85 192.70 200.55 208.40 216.25 224.10 231.95 239.80 247.65 255.50" fill="#a6e3a1">would fire</tspan><tspan x="263.35 271.20 279.05 286.90 294.75 302.60 310.45 318.30 326.15 334.00 341.85 349.70 357.55 365.40 373.25 381.10 388.95 396.80 404.65 412.50 420.35 428.20 436.05 443.90 451.75 459.60 467.45 475.30 483.15 491.00 498.85 506.70 514.55 522.40 530.25 538.10 545.95 553.80"> — starter model 'haiku' still on plan</tspan></text>
  <text y="137" font-family="'Cascadia Code','Fira Code',SFMono-Regular,Consolas,Menlo,monospace" font-size="13" xml:space="preserve" fill="#cdd6f4"><tspan x="20.00 27.85 35.70 43.55 51.40 59.25 67.10 74.95 82.80 90.65 98.50 106.35 114.20 122.05 129.90 137.75 145.60 153.45 161.30 169.15 177.00 184.85 192.70 200.55 208.40 216.25 224.10 231.95 239.80 247.65 255.50 263.35 271.20 279.05 286.90 294.75 302.60 310.45 318.30 326.15 334.00 341.85 349.70 357.55 365.40 373.25 381.10 388.95 396.80 404.65 412.50 420.35 428.20 436.05 443.90 451.75 459.60 467.45 475.30 483.15 491.00 498.85 506.70 514.55 522.40" fill="#9399b2">  credits=0/25 USD used (0%) — spent only after plan is exhausted</tspan></text>
  <rect x="667" y="37" width="164" height="22" rx="11" fill="#313244" stroke="#45475a"/>
  <text x="749" y="52" text-anchor="middle" font-family="'Cascadia Code','Fira Code',SFMono-Regular,Consolas,Menlo,monospace" font-size="11" fill="#f9e2af">+1m  ·  starter fired</text>
  </g>
</svg>
